<?xml version="1.0" encoding="UTF-8"?>
<svg xmlns="http://www.w3.org/2000/svg" xml:space="preserve" width="28px" height="28px" version="1.1" style="shape-rendering:geometricPrecision; text-rendering:geometricPrecision; image-rendering:optimizeQuality; fill-rule:evenodd; clip-rule:evenodd" viewBox="0 0 28 28">
 <g>
  <path fill="#1a009f" fill-rule="nonzero" d="M7.646 11.866l-6.688 0c-0.291,0 -0.541,-0.236 -0.541,-0.541l0 -6.688c0,-0.291 0.236,-0.541 0.541,-0.541l6.688 0c0.291,0 0.541,0.236 0.541,0.541l0 6.688c-0.014,0.305 -0.25,0.541 -0.541,0.541zm17.954 0l-6.702 0c-0.291,0 -0.541,-0.236 -0.541,-0.541l0 -6.688c0,-0.291 0.236,-0.541 0.541,-0.541l6.688 0c0.291,0 0.541,0.236 0.541,0.541l0 6.688c0.014,0.305 -0.236,0.541 -0.527,0.541zm-8.977 8.852l-6.688 0c-0.291,0 -0.541,-0.236 -0.541,-0.541l0 -6.687c0,-0.292 0.236,-0.542 0.541,-0.542l6.688 0c0.291,0 0.541,0.236 0.541,0.542l0 6.687c-0.014,0.305 -0.25,0.541 -0.541,0.541zm-0.833 -11.294l-5.674 2.165c-0.347,0.138 -0.736,-0.125 -0.736,-0.5l0 -6.618c0,-0.222 0.139,-0.416 0.347,-0.499l5.675 -2.165c0.347,-0.139 0.735,0.125 0.735,0.499l0 6.619c0,0.222 -0.139,0.416 -0.347,0.499z"/>
 </g>
</svg>
