<svg xmlns="http://www.w3.org/2000/svg" width="256" height="256"><path fill-opacity=".016" d="M0 128.004v128.004l128.25-.254 128.25-.254.254-127.75L257.008 0H0v128.004m.485.496c0 70.4.119 99.053.265 63.672.146-35.38.146-92.98 0-128C.604 29.153.485 58.1.485 128.5" fill="#1976D2" fill-rule="evenodd"/><path fill-opacity=".438" d="M128 41.394c-11.825 4.55-24.774 9.517-28.776 11.037-4.002 1.52-7.939 3.427-8.75 4.238C89.232 57.911 89 63.63 89 93.071c0 33.596.076 35.005 2 36.929 1.1 1.1 2.385 2 2.856 2 .662 0 50.808-18.996 59.422-22.51.978-.399 2.215-1.543 2.75-2.542.575-1.074.972-15.733.972-35.882 0-32.733-.078-34.144-2-36.066-1.1-1.1-2.787-1.973-3.75-1.94-.963.033-11.425 3.783-23.25 8.334M2.223 57.557L0 59.113v35.789c0 33.401.122 35.898 1.829 37.443C3.457 133.819 7.492 134 38.638 134c28.62 0 35.333-.258 36.921-1.418 1.845-1.349 1.955-3.097 2.233-35.25.161-18.608.048-34.813-.251-36.012C76.2 55.944 76.606 56 39.151 56c-29.793 0-35.021.22-36.928 1.557M180 58c-1.924 1.924-2 3.333-2 37s.076 35.076 2 37c1.925 1.925 3.333 2 37.345 2 32.972 0 35.456-.123 37-1.829 1.475-1.629 1.655-5.707 1.655-37.443V59.113l-2.223-1.556c-1.908-1.337-7.142-1.557-37-1.557-33.444 0-34.854.077-36.777 2m-89 88c-1.923 1.923-2 3.333-2 36.777 0 29.858.22 35.092 1.557 37L92.113 222h71.774l1.556-2.223c1.337-1.908 1.557-7.142 1.557-37 0-33.444-.077-34.854-2-36.777-1.924-1.924-3.333-2-37-2s-35.076.076-37 2" fill="#1976D2" fill-rule="evenodd"/><path fill-opacity=".44" d="M121.107 44.401c-17.29 6.629-29.952 12.034-30.75 13.125C89.278 59.002 89 66.265 89 92.969c0 28.779.223 33.904 1.557 35.808C91.413 130 93.055 131 94.206 131c2.781 0 57.803-20.911 60.044-22.819 1.605-1.368 1.75-4.406 1.75-36.779V36.113l-2.223-1.556c-1.222-.856-2.459-1.527-2.75-1.491-.29.036-13.754 5.137-29.92 11.335M1.035 58.934C.379 60.161 0 73.52 0 95.434 0 128.667.077 130.077 2 132c1.922 1.922 3.333 2 36.277 2 29.406 0 34.594-.221 36.5-1.557L77 130.887V95.143c0-26.467-.311-36.054-1.2-36.943-.889-.889-10.592-1.2-37.465-1.2-34.83 0-36.306.077-37.3 1.934M180.2 58.2c-.889.889-1.2 10.476-1.2 36.943v35.744l2.223 1.556c1.906 1.336 7.094 1.557 36.5 1.557 32.944 0 34.355-.078 36.277-2 1.923-1.923 2-3.333 2-36.566 0-21.914-.379-35.273-1.035-36.5-.994-1.857-2.47-1.934-37.3-1.934-26.873 0-36.576.311-37.465 1.2m-89.715 89.182c-1.353 2.066-1.522 6.993-1.273 37.082.274 33.015.382 34.768 2.229 36.117 2.87 2.098 70.248 2.098 73.118 0 1.847-1.349 1.955-3.102 2.229-36.117.249-30.089.08-35.016-1.273-37.082L163.954 145H92.046l-1.561 2.382" fill="#1976D2" fill-rule="evenodd"/><path fill-opacity=".759" d="M121.5 44.532c-14.85 5.713-28.013 10.847-29.25 11.407L90 56.957v35.822c0 36.862.141 38.221 3.96 38.221 2.029 0 59.001-21.722 60.725-23.153 1.826-1.516 1.936-70.826.115-72.647-.66-.66-2.348-1.168-3.75-1.129-1.402.04-14.7 4.747-29.55 10.461M1.557 59.223c-2.335 3.333-2.335 68.221 0 71.554L3.113 133h35.909c34.477 0 35.949-.077 36.943-1.934 1.41-2.636 1.41-69.496 0-72.132C74.971 57.077 73.499 57 39.022 57H3.113l-1.556 2.223M180.2 58.2c-1.72 1.72-1.72 71.88 0 73.6 1.495 1.495 71.453 1.705 73.8.221 2.142-1.354 2.263-70.795.128-73.367-1.23-1.482-5.083-1.654-37.05-1.654-26.416 0-35.99.312-36.878 1.2m-89 88c-.889.889-1.2 10.476-1.2 36.943v35.744l2.223 1.556C94.127 221.777 99.249 222 128 222s33.873-.223 35.777-1.557l2.223-1.556v-35.744c0-26.467-.311-36.054-1.2-36.943-1.72-1.72-71.88-1.72-73.6 0" fill="#1976D2" fill-rule="evenodd"/></svg>