<svg xmlns="http://www.w3.org/2000/svg" width="256" height="256"><path fill-opacity=".016" d="M0 128.004v128.004l128.25-.254 128.25-.254.254-127.75L257.008 0H0v128.004m.485.496c0 70.4.119 99.053.265 63.672.146-35.38.146-92.98 0-128C.604 29.153.485 58.1.485 128.5" fill="#1976D2" fill-rule="evenodd"/><path fill-opacity=".167" d="M122.698 66.9c-10.891 4.226-20.678 8.231-21.75 8.9C99.097 76.956 99 78.334 99 103.473c0 25.673.061 26.489 2.056 27.557 1.703.911 5.778-.308 23.75-7.107 11.932-4.515 22.257-8.649 22.944-9.188 1.757-1.378 1.804-52.781.05-54.535-1.977-1.977-4.433-1.321-25.102 6.7M34.571 77.571C33.224 78.919 33 82.828 33 105.015c0 25.601.023 25.888 2.223 27.428C37.088 133.75 41.394 134 62 134s24.912-.25 26.777-1.557c2.198-1.539 2.223-1.839 2.223-27.065 0-15.672-.399-26.255-1.035-27.444C88.982 76.097 87.607 76 62.536 76c-22.66 0-26.615.222-27.965 1.571m130.986.652c-1.308 1.866-1.557 6.192-1.557 27 0 23.444.108 24.885 2 26.777 1.895 1.895 3.333 2 27.429 2 21.783 0 25.653-.225 27-1.571 1.348-1.349 1.571-5.29 1.571-27.8 0-19.067-.328-26.557-1.2-27.429-.872-.872-8.365-1.2-27.443-1.2-25.986 0-26.259.022-27.8 2.223M100.2 142.2c-1.709 1.709-1.709 52.891 0 54.6.874.874 8.481 1.2 27.965 1.2 25.438 0 26.816-.096 27.8-1.934 1.394-2.605 1.394-50.527 0-53.132-.984-1.838-2.362-1.934-27.8-1.934-19.484 0-27.091.326-27.965 1.2" fill="#1976D2" fill-rule="evenodd"/><path fill-opacity=".507" d="M122.106 67.527c-11.767 4.577-21.773 8.918-22.235 9.647-.462.729-.847 12.599-.856 26.376-.016 26.141.191 27.45 4.326 27.45 2.689 0 41.754-14.951 43.909-16.805 1.581-1.359 1.75-3.945 1.75-26.695 0-23.134-.149-25.325-1.829-26.845-1.006-.91-2.243-1.609-2.75-1.553-.506.056-10.548 3.847-22.315 8.425m-87 9.845c-.805.97-1.061 9.258-.873 28.25L34.5 132.5l27 .267c24.497.243 27.116.109 28.25-1.441.92-1.257 1.25-8.203 1.25-26.295 0-20.634-.25-24.943-1.557-26.808-1.54-2.2-1.828-2.223-27.377-2.223-20.665 0-26.049.274-26.96 1.372m131.644-.292c-1.596.93-1.75 3.324-1.75 27.27 0 19.083.328 26.578 1.2 27.45 1.709 1.709 52.891 1.709 54.6 0 .871-.871 1.2-8.251 1.2-26.929 0-22.056-.224-25.952-1.571-27.3-1.347-1.347-5.167-1.567-26.75-1.541-15.234.019-25.87.433-26.929 1.05m-66.715 65.854C99.402 144.117 99 154.433 99 169.5c0 15.067.402 25.383 1.035 26.566.983 1.837 2.356 1.934 27.3 1.934 19.095 0 26.593-.328 27.465-1.2 1.709-1.709 1.709-52.891 0-54.6-.872-.872-8.37-1.2-27.465-1.2-24.944 0-26.317.097-27.3 1.934" fill="#1976D2" fill-rule="evenodd"/><path fill-opacity=".816" d="M122.131 67.956c-11.203 4.335-20.773 8.286-21.267 8.78-.499.499-.779 12.636-.631 27.331.258 25.587.331 26.441 2.267 26.67 1.1.13 11.675-3.489 23.5-8.042l21.5-8.279V60.5l-2.5-.213c-1.375-.116-11.666 3.335-22.869 7.669m-87.449 9.695c-1.286 1.286-.793 52.838.518 54.149 1.857 1.857 52.144 1.695 53.694-.173.805-.969 1.061-9.127.873-27.75L89.5 77.5l-27.068-.266c-14.887-.146-27.374.042-27.75.417m131.534.533c-1.723 1.723-1.738 51.894-.016 53.616 1.39 1.39 51.415 1.731 53.567.365.982-.623 1.206-6.856 1-27.734L220.5 77.5l-26.534-.266c-19.799-.198-26.843.043-27.75.95M101.75 142.08c-1.596.93-1.75 3.324-1.75 27.27 0 19.083.328 26.578 1.2 27.45.87.87 8.14 1.2 26.429 1.2 21.601 0 25.454-.226 26.8-1.571 2.357-2.358 2.357-51.5 0-53.858-1.346-1.345-5.121-1.567-26.25-1.541-14.895.019-25.373.435-26.429 1.05" fill="#1976D2" fill-rule="evenodd"/></svg>