<?xml version="1.0" encoding="UTF-8"?> <svg xmlns="http://www.w3.org/2000/svg" width="271" height="53" viewBox="0 0 271 53" fill="none"> <path d="M18.752 26.2227H1.40393C0.648106 26.2227 0.000244141 25.6108 0.000244141 24.819V7.47094C0.000244141 6.71511 0.612114 6.06726 1.40393 6.06726H18.752C19.5078 6.06726 20.1557 6.67912 20.1557 7.47094V24.819C20.1197 25.6108 19.5078 26.2227 18.752 26.2227Z" fill="#F05A28"></path> <path d="M39.8789 19.8883L25.1583 25.503C24.2585 25.8629 23.2507 25.179 23.2507 24.2073V7.03918C23.2507 6.46331 23.6107 5.95942 24.1505 5.74347L38.8712 0.128744C39.771 -0.231174 40.7787 0.452672 40.7787 1.42445V18.5926C40.7787 19.1684 40.4188 19.6723 39.8789 19.8883Z" fill="#F05A28"></path> <path d="M42.0386 49.1855H24.6905C23.9347 49.1855 23.2869 48.5736 23.2869 47.7818V30.4338C23.2869 29.6779 23.8987 29.0301 24.6905 29.0301H42.0386C42.7944 29.0301 43.4423 29.6419 43.4423 30.4338V47.7818C43.4063 48.5736 42.7944 49.1855 42.0386 49.1855Z" fill="#F05A28"></path> <path d="M65.3253 26.2227H47.9413C47.1855 26.2227 46.5376 25.6108 46.5376 24.819V7.47094C46.5376 6.71511 47.1495 6.06726 47.9413 6.06726H65.2893C66.0452 6.06726 66.693 6.67912 66.693 7.47094V24.819C66.729 25.6108 66.0812 26.2227 65.3253 26.2227Z" fill="#F05A28"></path> <path d="M120.122 27.1021C115.467 31.2271 107.885 30.0518 103.921 25.2125C100.096 20.5344 100.303 13.8054 104.474 9.26556C108.392 5.0023 115.582 4.03442 119.891 7.85983C120.882 7.35285 121.781 6.79977 122.749 6.40801C123.279 6.20061 123.924 6.29279 124.5 6.29279C124.638 6.29279 124.823 6.50019 124.892 6.66151C124.961 6.79977 124.915 6.98413 124.915 7.14545C124.915 14.0588 124.915 20.9722 124.915 27.9087C124.915 28.8305 124.915 28.8305 123.97 28.8305C122.426 28.8765 121.136 28.3004 120.122 27.1021ZM107.194 17.5386C107.194 20.9492 109.89 23.6685 113.254 23.6685C116.619 23.6685 119.338 20.9722 119.338 17.6077C119.338 14.1971 116.665 11.4548 113.3 11.4317C109.913 11.4317 107.194 14.151 107.194 17.5386Z" fill="#F05A28"></path> <path d="M183.471 8.04422C184.554 6.73068 185.937 6.2237 187.596 6.26979C188.172 6.29283 188.333 6.47718 188.333 7.00721C188.31 9.4269 188.333 11.8466 188.333 14.2893C188.333 18.8291 188.333 23.3689 188.333 27.9087C188.333 28.8535 188.333 28.8535 187.389 28.8535C185.775 28.8535 185.015 28.5309 183.425 27.1021C180.982 29.2914 178.079 29.8905 174.898 29.4988C171.741 29.107 169.229 27.54 167.248 25.1203C163.399 20.3731 163.745 13.6671 167.962 9.19646C171.903 4.97929 179.023 4.12663 183.471 8.04422ZM170.543 17.5386C170.543 20.9492 173.239 23.6685 176.627 23.6685C179.991 23.6685 182.711 20.9723 182.711 17.6078C182.711 14.1971 180.037 11.4548 176.673 11.4548C173.262 11.4318 170.543 14.151 170.543 17.5386Z" fill="#F05A28"></path> <path d="M144.572 9.47293C144.572 10.3025 144.572 11.1322 144.572 11.9618C144.572 12.5148 144.365 12.7222 143.812 12.4457C141.576 11.3626 139.18 11.2935 136.783 11.4548C136.483 11.4778 136.161 11.547 135.907 11.7083C135.654 11.8696 135.354 12.1461 135.331 12.3996C135.308 12.6301 135.585 12.9988 135.838 13.137C137.29 13.8514 138.765 14.4967 140.217 15.188C141.185 15.672 142.222 16.1098 143.074 16.7551C146.992 19.6126 146.784 25.489 142.705 28.1391C140.908 29.3144 138.88 29.7061 136.783 29.637C135.17 29.5679 133.58 29.3144 131.99 29.0148C130.768 28.7844 130.146 27.8856 130.146 26.6643C130.146 25.3968 130.146 24.1524 130.146 22.8849C130.146 22.1014 130.307 22.0092 131.022 22.3779C133.28 23.5071 135.677 23.9911 138.189 23.5993C138.488 23.5532 138.788 23.461 139.064 23.3458C140.032 22.931 140.148 21.8249 139.295 21.2027C139.018 21.0183 138.719 20.88 138.419 20.7418C136.783 19.9813 135.17 19.1978 133.511 18.4603C130.284 17.0546 129.178 14.6119 129.317 12.0539C129.478 9.01204 131.552 6.68454 134.686 5.92406C137.797 5.16359 140.908 5.46317 143.973 6.26973C144.365 6.38496 144.503 6.59235 144.503 6.98411C144.572 7.81372 144.572 8.64332 144.572 9.47293Z" fill="#F05A28"></path> <path d="M92.6525 6.29834C94.2887 6.29834 95.8557 6.29834 97.4227 6.29834C98.3676 6.29834 98.3676 6.29835 98.3676 7.24318C98.3676 8.18801 98.3676 9.13284 98.3676 10.1007C98.3676 11.5756 97.7223 12.2208 96.2244 12.2208C95.0722 12.2208 93.8969 12.2208 92.6986 12.2208C92.6755 12.4974 92.6525 12.7048 92.6525 12.8891C92.6525 15.6545 92.6525 18.3968 92.6525 21.1621C92.6525 22.6831 93.3208 23.4205 94.8417 23.6049C95.8327 23.7201 96.7775 23.674 97.6762 23.2131C98.1141 22.9827 98.3445 23.167 98.3445 23.651C98.3445 25.3563 98.3676 27.0846 98.3215 28.7899C98.3215 28.9973 98.068 29.343 97.8836 29.3891C94.7496 29.9882 90.7859 29.5734 88.2971 26.3472C87.1909 24.9184 86.6839 23.2822 86.6839 21.5078C86.6609 14.5944 86.6609 7.68102 86.6609 0.76763C86.6609 0.260647 86.8222 0.0762959 87.3522 0.0532513C90.4863 0.00716201 92.6295 2.05813 92.6295 5.1922C92.6525 5.51483 92.6525 5.88354 92.6525 6.29834Z" fill="#F05A28"></path> <path d="M156.002 6.29286C157.707 6.29286 159.297 6.31591 160.887 6.26982C161.486 6.24678 161.74 6.40809 161.717 7.05334C161.671 8.09035 161.717 9.1504 161.694 10.1874C161.694 11.4779 161.003 12.1693 159.712 12.1923C158.514 12.2153 157.292 12.1923 156.048 12.1923C156.025 12.4458 156.002 12.6532 156.002 12.8606C156.002 15.6259 156.002 18.3683 156.002 21.1336C156.002 22.6776 156.67 23.392 158.191 23.5763C159.182 23.6916 160.127 23.6685 161.026 23.1846C161.463 22.9541 161.717 23.1155 161.717 23.5994C161.717 25.3047 161.74 27.0331 161.694 28.7384C161.694 28.9458 161.44 29.2914 161.256 29.3375C158.191 29.9136 154.274 29.5449 151.762 26.4108C150.586 24.936 150.056 23.2307 150.033 21.3871C150.01 14.4968 150.033 7.60641 150.01 0.716063C150.01 0.20908 150.149 0.00167717 150.702 0.00167717C153.836 -0.0674568 155.979 2.00656 156.002 5.14063C156.002 5.50935 156.002 5.85501 156.002 6.29286Z" fill="#F05A28"></path> <path d="M210.387 7.74454C214.052 5.25572 217.969 4.97918 222.025 6.40795C225.39 7.58322 227.394 10.4638 227.44 14.0357C227.487 18.7599 227.44 23.5071 227.464 28.2312C227.464 28.8073 227.233 28.9687 226.703 28.9456C225.643 28.9226 224.56 28.9456 223.5 28.9456C222.186 28.9456 221.495 28.2312 221.495 26.8946C221.495 22.7697 221.495 18.6216 221.495 14.4966C221.495 12.9526 220.965 12.2382 219.467 11.8234C218.13 11.4547 216.794 11.4547 215.457 11.8234C213.936 12.2382 213.383 12.9757 213.383 14.5427C213.383 19.0595 213.36 23.5762 213.406 28.093C213.406 28.7843 213.222 28.9917 212.531 28.9687C211.125 28.9226 209.719 28.9226 208.313 28.9687C207.645 28.9917 207.461 28.7843 207.461 28.139C207.484 23.7606 207.484 19.3821 207.484 15.0267C207.484 12.7452 206.862 12.0308 204.603 11.6852C203.382 11.5008 202.184 11.5469 201.031 11.9848C199.856 12.4226 199.372 13.1139 199.372 14.3583C199.372 18.9442 199.349 23.5301 199.395 28.116C199.395 28.8073 199.211 29.0147 198.519 28.9917C197.068 28.9456 195.616 28.9687 194.164 28.9917C193.634 28.9917 193.404 28.8534 193.404 28.2773C193.427 23.5532 193.381 18.806 193.427 14.0818C193.473 9.93377 196.445 6.61535 200.755 5.90097C203.797 5.39399 206.769 5.5553 209.512 7.19147C209.788 7.32974 210.088 7.56018 210.387 7.74454Z" fill="#F05A28"></path> <path d="M249.633 8.13645C250.716 6.82291 252.098 6.31593 253.758 6.36202C254.311 6.38506 254.495 6.54637 254.495 7.09944C254.472 9.19651 254.495 11.2936 254.495 13.3676C254.495 18.23 254.495 23.1155 254.495 27.9779C254.495 28.9227 254.495 28.9227 253.55 28.9227C251.983 28.9458 250.693 28.3697 249.633 27.1253C246.96 29.5219 243.825 30.0519 240.438 29.4528C237.534 28.9458 235.207 27.4018 233.363 25.1204C229.515 20.304 229.93 13.575 234.216 9.15042C238.203 5.02543 245.254 4.24191 249.633 8.13645ZM248.872 17.6769C248.872 14.2663 246.199 11.5471 242.811 11.524C239.424 11.501 236.705 14.2202 236.705 17.6309C236.705 21.0415 239.424 23.7607 242.788 23.7377C246.176 23.7377 248.872 21.0415 248.872 17.6769Z" fill="#F05A28"></path> <path d="M265.279 6.36218C266.962 6.36218 268.529 6.38522 270.119 6.33913C270.81 6.31609 271.041 6.54653 270.994 7.23787C270.948 8.27488 270.994 9.33494 270.971 10.3719C270.948 11.5242 270.257 12.2386 269.105 12.2616C267.86 12.2847 266.593 12.2616 265.256 12.2616C265.256 12.6073 265.256 12.8838 265.256 13.1603C265.256 15.8566 265.256 18.5297 265.256 21.226C265.256 22.7239 265.925 23.4613 267.376 23.6457C268.39 23.7839 269.358 23.7378 270.28 23.2539C270.718 23.0235 270.948 23.2309 270.948 23.7148C270.948 25.4201 270.971 27.1485 270.925 28.8538C270.925 29.0612 270.672 29.4068 270.464 29.4299C267.238 30.029 263.321 29.5681 260.832 26.3188C259.726 24.867 259.265 23.1848 259.265 21.3873C259.242 14.543 259.265 7.69877 259.242 0.854508C259.242 0.255347 259.449 0.0940285 260.025 0.0709839C263.136 0.0709839 265.21 2.09892 265.233 5.23299C265.279 5.57866 265.279 5.92433 265.279 6.36218Z" fill="#F05A28"></path> <path d="M92.8666 44.4525H90.4967V50.9642H88.7364V44.4525H86.3665V43.026H92.8666V44.4525Z" fill="#F05A28"></path> <path d="M99.3966 49.5952L99.4656 50.8837C98.7523 50.9604 97.5251 50.9987 95.7841 50.9987C95.2548 50.9987 94.833 50.8568 94.5185 50.5731C94.2041 50.2816 94.0469 49.8904 94.0469 49.3996V44.5906C94.0469 44.0997 94.2041 43.7124 94.5185 43.4286C94.8407 43.1372 95.2625 42.9914 95.7841 42.9914C97.5251 42.9914 98.7523 43.0298 99.4656 43.1065L99.3966 44.4065H96.3363C96.1445 44.4065 96.0065 44.4525 95.9221 44.5446C95.8378 44.6366 95.7956 44.7862 95.7956 44.9933V46.2013H98.9594V47.4668H95.7956V48.9969C95.7956 49.2117 95.8378 49.3651 95.9221 49.4571C96.0065 49.5491 96.1445 49.5952 96.3363 49.5952H99.3966Z" fill="#F05A28"></path> <path d="M100.986 50.9642V43.026C101.699 42.9569 102.708 42.9224 104.012 42.9224C105.116 42.9224 105.872 43.1026 106.278 43.4631C106.692 43.8236 106.899 44.5062 106.899 45.511C106.899 46.5157 106.704 47.2022 106.313 47.5703C105.929 47.9308 105.239 48.111 104.242 48.111C103.736 48.111 103.237 48.0804 102.746 48.019V50.9642H100.986ZM102.746 46.765H103.966C104.426 46.7573 104.736 46.6691 104.898 46.5004C105.059 46.3316 105.139 46.0018 105.139 45.511C105.139 45.0201 105.059 44.6903 104.898 44.5216C104.736 44.3528 104.426 44.2685 103.966 44.2685L102.746 44.28V46.765Z" fill="#F05A28"></path> <path d="M114.69 43.026H116.382C116.796 43.026 117.014 43.2445 117.037 43.6817L117.337 50.9642H115.68L115.427 44.395H115.22L114.023 49.3075C113.947 49.6834 113.713 49.8713 113.321 49.8713H112.171C111.78 49.8713 111.538 49.6834 111.446 49.3075L110.238 44.395H110.043L109.812 50.9642H108.167L108.455 43.6817C108.47 43.2445 108.689 43.026 109.111 43.026H110.802C111.17 43.026 111.4 43.2139 111.492 43.5897L112.459 47.5473C112.489 47.7007 112.528 47.9155 112.574 48.1916C112.627 48.4677 112.658 48.6249 112.666 48.6633H112.815C112.823 48.6249 112.85 48.4677 112.896 48.1916C112.949 47.9155 112.992 47.7007 113.022 47.5473L113.977 43.5897C114.062 43.2139 114.299 43.026 114.69 43.026Z" fill="#F05A28"></path> <path d="M125.586 50.9642H123.906V46.2243C123.906 45.8715 123.941 45.5148 124.01 45.1543H123.929C123.814 45.5071 123.665 45.8561 123.481 46.2013L120.8 50.9642H119.063V43.026H120.731V47.6854C120.731 48.0152 120.701 48.3833 120.639 48.7898H120.708C120.808 48.4984 120.961 48.1532 121.168 47.7544L123.849 43.026H125.586V50.9642Z" fill="#F05A28"></path> <path d="M133.777 43.026V50.9642H132.017V47.4208H129.221V50.9642H127.472V43.026H129.221V46.0632H132.017V43.026H133.777Z" fill="#F05A28"></path> <path d="M139.948 48.8819H137.221L136.646 50.9642H134.851L137.141 43.4861C137.171 43.3481 137.244 43.2369 137.359 43.1525C137.474 43.0681 137.605 43.026 137.75 43.026H139.407C139.737 43.026 139.94 43.1793 140.017 43.4861L142.306 50.9642H140.523L139.948 48.8819ZM139.568 47.5243L138.901 45.0968C138.809 44.7133 138.755 44.464 138.74 44.349H138.429C138.414 44.4257 138.387 44.5484 138.349 44.7171C138.31 44.8859 138.28 45.0124 138.257 45.0968L137.589 47.5243H139.568Z" fill="#F05A28"></path> <path d="M149.536 43.026V50.9642H147.775V44.2915H146.763C146.311 44.2915 146.069 44.5139 146.038 44.9587C145.939 46.1476 145.843 47.0526 145.751 47.6739C145.666 48.2951 145.536 48.8282 145.359 49.273C144.892 50.5769 144.013 51.1521 142.725 50.9987L142.598 49.6412C142.897 49.5875 143.135 49.4993 143.312 49.3766C143.496 49.2538 143.638 49.0621 143.737 48.8013C143.891 48.3948 144.01 47.904 144.094 47.3287C144.178 46.7458 144.267 45.8868 144.359 44.7517C144.443 43.6012 145.064 43.026 146.222 43.026H149.536Z" fill="#F05A28"></path> <path d="M153.157 45.9712H154.307C155.396 45.9712 156.148 46.1552 156.562 46.5234C156.984 46.8915 157.195 47.5627 157.195 48.5367C157.195 49.4954 156.999 50.1551 156.608 50.5155C156.217 50.876 155.55 51.0563 154.606 51.0563C153.233 51.0563 152.183 51.0256 151.454 50.9642H151.408V43.026H153.157V45.9712ZM160.071 43.026V50.9642H158.322V43.026H160.071ZM153.157 49.6987H154.307C154.775 49.6987 155.078 49.622 155.216 49.4686C155.354 49.3075 155.423 48.9777 155.423 48.4792C155.423 47.9807 155.35 47.6432 155.204 47.4668C155.066 47.2904 154.767 47.2022 154.307 47.2022H153.157V49.6987Z" fill="#F05A28"></path> <path d="M170.647 43.026L168.702 48.9164C168.472 49.6143 168.212 50.1397 167.92 50.4925C167.629 50.8377 167.222 51.0332 166.701 51.0793C166.179 51.1253 165.543 51.0678 164.791 50.9067L164.986 49.6642C165.73 49.7025 166.202 49.691 166.402 49.6297C166.609 49.5606 166.785 49.3382 166.931 48.9624L167.023 48.7093H166.597C166.083 48.7093 165.742 48.4447 165.573 47.9155L163.94 43.026H165.734L166.988 47.2252C167.011 47.3172 167.08 47.3632 167.195 47.3632H167.483L168.852 43.026H170.647Z" fill="#F05A28"></path> <path d="M178.077 43.026H179.768C180.182 43.026 180.401 43.2445 180.424 43.6817L180.723 50.9642H179.066L178.813 44.395H178.606L177.41 49.3075C177.333 49.6834 177.099 49.8713 176.708 49.8713H175.558C175.166 49.8713 174.925 49.6834 174.833 49.3075L173.625 44.395H173.429L173.199 50.9642H171.554L171.841 43.6817C171.857 43.2445 172.075 43.026 172.497 43.026H174.188C174.557 43.026 174.787 43.2139 174.879 43.5897L175.845 47.5473C175.876 47.7007 175.914 47.9155 175.96 48.1916C176.014 48.4677 176.045 48.6249 176.052 48.6633H176.202C176.209 48.6249 176.236 48.4677 176.282 48.1916C176.336 47.9155 176.378 47.7007 176.409 47.5473L177.364 43.5897C177.448 43.2139 177.686 43.026 178.077 43.026Z" fill="#F05A28"></path> <path d="M188.754 43.026V50.9642H186.994V47.4208H184.198V50.9642H182.45V43.026H184.198V46.0632H186.994V43.026H188.754Z" fill="#F05A28"></path> <path d="M191.094 43.7623C191.593 43.1717 192.478 42.8764 193.752 42.8764C195.025 42.8764 195.911 43.1717 196.409 43.7623C196.908 44.3452 197.157 45.4228 197.157 46.9951C197.157 48.5674 196.908 49.6488 196.409 50.2394C195.911 50.8223 195.025 51.1138 193.752 51.1138C192.478 51.1138 191.593 50.8223 191.094 50.2394C190.603 49.6488 190.358 48.5674 190.358 46.9951C190.358 45.4228 190.603 44.3452 191.094 43.7623ZM194.971 44.8552C194.756 44.4794 194.35 44.2915 193.752 44.2915C193.153 44.2915 192.743 44.4794 192.521 44.8552C192.306 45.231 192.198 45.9443 192.198 46.9951C192.198 48.0458 192.306 48.7591 192.521 49.135C192.743 49.5108 193.153 49.6987 193.752 49.6987C194.35 49.6987 194.756 49.5108 194.971 49.135C195.194 48.7591 195.305 48.0458 195.305 46.9951C195.305 45.9443 195.194 45.231 194.971 44.8552Z" fill="#F05A28"></path> <path d="M202.813 40.6675H203.94C204.002 41.1583 203.86 41.5802 203.514 41.933C203.169 42.2781 202.686 42.4507 202.065 42.4507C201.444 42.4507 200.957 42.2781 200.604 41.933C200.251 41.5802 200.105 41.1583 200.167 40.6675H201.294C201.263 41.2964 201.52 41.6109 202.065 41.6109C202.594 41.6109 202.843 41.2964 202.813 40.6675ZM205.263 50.9642H203.583V46.2243C203.583 45.8715 203.618 45.5148 203.687 45.1543H203.607C203.491 45.5071 203.342 45.8561 203.158 46.2013L200.477 50.9642H198.74V43.026H200.408V47.6854C200.408 48.0152 200.378 48.3833 200.316 48.7898H200.385C200.485 48.4984 200.638 48.1532 200.845 47.7544L203.526 43.026H205.263V50.9642Z" fill="#F05A28"></path> <path d="M216.017 52.7014L215.879 50.9642H210.621L210.483 52.7014H209.241V49.6987H210.081C210.625 48.3411 210.97 46.6691 211.116 44.6826C211.154 44.1841 211.338 43.7853 211.668 43.4861C211.998 43.1793 212.431 43.026 212.968 43.026H216.224V49.6987H217.26V52.7014H216.017ZM214.475 49.6987V44.2915H213.452C213.221 44.2915 213.053 44.3452 212.945 44.4525C212.846 44.5522 212.788 44.7248 212.773 44.9703C212.681 46.0824 212.558 46.9951 212.405 47.7084C212.251 48.4217 212.025 49.0851 211.726 49.6987H214.475Z" fill="#F05A28"></path> <path d="M218.979 43.7623C219.477 43.1717 220.363 42.8764 221.636 42.8764C222.909 42.8764 223.795 43.1717 224.294 43.7623C224.792 44.3452 225.042 45.4228 225.042 46.9951C225.042 48.5674 224.792 49.6488 224.294 50.2394C223.795 50.8223 222.909 51.1138 221.636 51.1138C220.363 51.1138 219.477 50.8223 218.979 50.2394C218.488 49.6488 218.242 48.5674 218.242 46.9951C218.242 45.4228 218.488 44.3452 218.979 43.7623ZM222.856 44.8552C222.641 44.4794 222.234 44.2915 221.636 44.2915C221.038 44.2915 220.628 44.4794 220.405 44.8552C220.19 45.231 220.083 45.9443 220.083 46.9951C220.083 48.0458 220.19 48.7591 220.405 49.135C220.628 49.5108 221.038 49.6987 221.636 49.6987C222.234 49.6987 222.641 49.5108 222.856 49.135C223.078 48.7591 223.189 48.0458 223.189 46.9951C223.189 45.9443 223.078 45.231 222.856 44.8552Z" fill="#F05A28"></path> <path d="M232.066 49.4801L232.216 50.7801C231.526 50.9949 230.678 51.1023 229.673 51.1023C228.446 51.1023 227.583 50.7955 227.085 50.1819C226.586 49.5683 226.337 48.506 226.337 46.9951C226.337 45.4841 226.586 44.4219 227.085 43.8083C227.583 43.1947 228.446 42.8879 229.673 42.8879C230.563 42.8879 231.357 42.9761 232.055 43.1525L231.905 44.464C231.284 44.4257 230.54 44.4065 229.673 44.4065C229.098 44.4065 228.703 44.5906 228.488 44.9587C228.281 45.3192 228.178 45.998 228.178 46.9951C228.178 47.9922 228.281 48.6748 228.488 49.0429C228.703 49.4034 229.098 49.5836 229.673 49.5836C230.739 49.5836 231.537 49.5491 232.066 49.4801Z" fill="#F05A28"></path> <path d="M239.475 44.4525H237.105V50.9642H235.344V44.4525H232.974V43.026H239.475V44.4525Z" fill="#F05A28"></path> <path d="M244.364 48.8819H241.637L241.062 50.9642H239.267L241.556 43.4861C241.587 43.3481 241.66 43.2369 241.775 43.1525C241.89 43.0681 242.02 43.026 242.166 43.026H243.823C244.153 43.026 244.356 43.1793 244.433 43.4861L246.722 50.9642H244.939L244.364 48.8819ZM243.984 47.5243L243.317 45.0968C243.225 44.7133 243.171 44.464 243.156 44.349H242.845C242.83 44.4257 242.803 44.5484 242.764 44.7171C242.726 44.8859 242.695 45.0124 242.672 45.0968L242.005 47.5243H243.984Z" fill="#F05A28"></path> <path d="M252.191 46.8225V46.8685C252.782 46.9222 253.2 47.1255 253.445 47.4783C253.698 47.8234 253.825 48.3258 253.825 48.9854C253.825 49.7831 253.622 50.3276 253.215 50.6191C252.809 50.9105 252.118 51.0563 251.144 51.0563C249.679 51.0563 248.56 51.0256 247.785 50.9642V43.026C248.475 42.9646 249.472 42.9339 250.776 42.9339C251.827 42.9339 252.556 43.0796 252.962 43.3711C253.369 43.6549 253.572 44.1994 253.572 45.0048C253.572 45.58 253.464 46.0172 253.25 46.3163C253.035 46.6078 252.682 46.7765 252.191 46.8225ZM249.499 46.2703H250.788C251.21 46.2703 251.497 46.2013 251.651 46.0632C251.812 45.9251 251.892 45.6529 251.892 45.2464C251.892 44.8475 251.808 44.5829 251.639 44.4525C251.478 44.3222 251.16 44.257 250.684 44.257L249.499 44.2455V46.2703ZM249.499 49.7332H250.834C251.325 49.7332 251.654 49.6642 251.823 49.5261C251.992 49.3804 252.076 49.0889 252.076 48.6518C252.076 48.1762 251.988 47.8579 251.812 47.6969C251.635 47.5281 251.298 47.4399 250.799 47.4323H249.499V49.7332Z" fill="#F05A28"></path> <path d="M258.941 46.7995V46.8455C259.087 46.8685 259.221 46.8954 259.343 46.9261C259.466 46.9491 259.581 46.9912 259.689 47.0526C259.804 47.114 259.903 47.1677 259.988 47.2137C260.072 47.2597 260.156 47.3441 260.241 47.4668C260.333 47.5818 260.406 47.6739 260.459 47.7429C260.521 47.8119 260.59 47.9385 260.666 48.1225C260.751 48.3066 260.816 48.4523 260.862 48.5597C260.908 48.6594 260.973 48.8397 261.058 49.1005C261.15 49.3612 261.219 49.5645 261.265 49.7102C261.311 49.8483 261.387 50.086 261.495 50.4235C261.572 50.6613 261.629 50.8415 261.667 50.9642H259.838C259.409 49.5606 259.117 48.7016 258.964 48.3872C258.726 47.904 258.427 47.6163 258.066 47.5243C257.928 47.486 257.771 47.4668 257.595 47.4668H257.031C257.092 47.7506 257.123 48.0037 257.123 48.2261V50.9642H255.374V43.026H257.123V45.2694C257.123 45.5685 257.092 45.883 257.031 46.2128H257.572C258.116 46.2128 258.507 46.0057 258.745 45.5915C258.991 45.1773 259.29 44.3605 259.643 43.141C259.658 43.0873 259.669 43.049 259.677 43.026H261.46C261.031 44.3758 260.759 45.1773 260.643 45.4304C260.375 46.0287 260.038 46.4237 259.631 46.6154C259.439 46.6998 259.209 46.7612 258.941 46.7995Z" fill="#F05A28"></path> <path d="M269.464 50.9642H267.784V46.2243C267.784 45.8715 267.819 45.5148 267.888 45.1543H267.807C267.692 45.5071 267.543 45.8561 267.359 46.2013L264.678 50.9642H262.941V43.026H264.609V47.6854C264.609 48.0152 264.578 48.3833 264.517 48.7898H264.586C264.686 48.4984 264.839 48.1532 265.046 47.7544L267.727 43.026H269.464V50.9642Z" fill="#F05A28"></path> </svg> 