<?xml version="1.0" encoding="UTF-8"?>
<svg xmlns="http://www.w3.org/2000/svg" xml:space="preserve" width="142px" height="28px" version="1.1" style="shape-rendering:geometricPrecision; text-rendering:geometricPrecision; image-rendering:optimizeQuality; fill-rule:evenodd; clip-rule:evenodd" viewBox="0 0 142 25" xmlns:xlink="http://www.w3.org/1999/xlink">
 <g fill="#ffffff">
  <path d="M26.482 23.646c-3.498,3.099 -9.195,2.216 -12.174,-1.42 -2.874,-3.515 -2.718,-8.572 0.416,-11.983 2.944,-3.203 8.347,-3.931 11.585,-1.056 0.744,-0.381 1.42,-0.797 2.147,-1.091 0.398,-0.156 0.883,-0.087 1.316,-0.087 0.104,0 0.243,0.156 0.295,0.278 0.051,0.103 0.017,0.242 0.017,0.363 0,5.195 0,10.39 0,15.602 0,0.693 0,0.693 -0.71,0.693 -1.161,0.034 -2.13,-0.399 -2.892,-1.299zm-9.714 -7.186c0,2.563 2.026,4.606 4.554,4.606 2.528,0 4.571,-2.026 4.571,-4.555 0,-2.562 -2.008,-4.623 -4.537,-4.64 -2.545,0 -4.588,2.043 -4.588,4.589z"/>
  <path d="M74.084 9.325c0.814,-0.986 1.853,-1.368 3.099,-1.333 0.433,0.017 0.554,0.156 0.554,0.554 -0.017,1.818 0,3.637 0,5.472 0,3.411 0,6.823 0,10.234 0,0.71 0,0.71 -0.709,0.71 -1.213,0 -1.784,-0.243 -2.979,-1.316 -1.835,1.645 -4.017,2.095 -6.407,1.801 -2.372,-0.295 -4.26,-1.472 -5.748,-3.29 -2.893,-3.567 -2.633,-8.607 0.536,-11.966 2.961,-3.169 8.312,-3.809 11.654,-0.866zm-9.715 7.135c0,2.563 2.026,4.606 4.572,4.606 2.528,0 4.572,-2.026 4.572,-4.554 0,-2.563 -2.01,-4.624 -4.537,-4.624 -2.563,-0.017 -4.607,2.026 -4.607,4.572z"/>
  <path d="M44.854 10.399c0,0.623 0,1.247 0,1.87 0,0.416 -0.155,0.571 -0.571,0.364 -1.68,-0.814 -3.48,-0.866 -5.281,-0.745 -0.226,0.018 -0.468,0.07 -0.659,0.191 -0.19,0.121 -0.415,0.329 -0.432,0.519 -0.018,0.173 0.19,0.45 0.38,0.554 1.092,0.537 2.2,1.022 3.291,1.541 0.727,0.364 1.506,0.693 2.147,1.178 2.944,2.147 2.788,6.563 -0.278,8.554 -1.35,0.883 -2.874,1.178 -4.449,1.126 -1.212,-0.052 -2.407,-0.243 -3.602,-0.468 -0.918,-0.173 -1.386,-0.848 -1.386,-1.766 0,-0.953 0,-1.887 0,-2.84 0,-0.589 0.121,-0.658 0.659,-0.381 1.696,0.848 3.497,1.212 5.385,0.918 0.225,-0.035 0.45,-0.104 0.658,-0.191 0.727,-0.311 0.814,-1.143 0.173,-1.61 -0.208,-0.139 -0.433,-0.243 -0.658,-0.346 -1.229,-0.572 -2.441,-1.16 -3.688,-1.715 -2.425,-1.056 -3.256,-2.892 -3.151,-4.814 0.121,-2.285 1.679,-4.034 4.034,-4.606 2.337,-0.571 4.675,-0.346 6.978,0.26 0.295,0.087 0.398,0.243 0.398,0.537 0.052,0.623 0.052,1.247 0.052,1.87z"/>
  <path d="M5.841 8.014c1.23,0 2.407,0 3.585,0 0.71,0 0.71,0 0.71,0.71 0,0.71 0,1.419 0,2.147 0,1.108 -0.485,1.593 -1.611,1.593 -0.866,0 -1.749,0 -2.649,0 -0.017,0.208 -0.035,0.363 -0.035,0.502 0,2.078 0,4.138 0,6.216 0,1.143 0.502,1.697 1.645,1.836 0.745,0.087 1.455,0.052 2.13,-0.295 0.329,-0.172 0.502,-0.034 0.502,0.33 0,1.281 0.018,2.58 -0.017,3.861 0,0.156 -0.191,0.416 -0.329,0.45 -2.355,0.45 -5.333,0.139 -7.204,-2.285 -0.831,-1.074 -1.212,-2.304 -1.212,-3.637 -0.017,-5.195 -0.017,-10.389 -0.017,-15.584 0,-0.381 0.121,-0.52 0.519,-0.537 2.355,-0.035 3.966,1.506 3.966,3.861 0.017,0.243 0.017,0.52 0.017,0.832z"/>
  <path d="M53.443 8.009c1.281,0 2.476,0.018 3.671,-0.017 0.45,-0.017 0.641,0.104 0.623,0.589 -0.034,0.779 0,1.576 -0.017,2.355 0,0.97 -0.519,1.489 -1.489,1.506 -0.9,0.018 -1.819,0 -2.753,0 -0.018,0.191 -0.035,0.347 -0.035,0.502 0,2.078 0,4.139 0,6.217 0,1.16 0.502,1.697 1.645,1.835 0.745,0.087 1.455,0.07 2.13,-0.294 0.329,-0.173 0.519,-0.052 0.519,0.312 0,1.281 0.018,2.58 -0.017,3.861 0,0.156 -0.191,0.416 -0.329,0.451 -2.303,0.433 -5.246,0.155 -7.134,-2.2 -0.884,-1.108 -1.282,-2.389 -1.299,-3.775 -0.017,-5.177 0,-10.354 -0.017,-15.532 0,-0.381 0.104,-0.537 0.52,-0.537 2.355,-0.052 3.965,1.507 3.982,3.862 0,0.277 0,0.536 0,0.865z"/>
  <path d="M94.309 9.1c2.754,-1.87 5.697,-2.078 8.745,-1.004 2.528,0.883 4.034,3.048 4.069,5.732 0.035,3.549 0,7.116 0.018,10.666 0,0.433 -0.174,0.555 -0.572,0.537 -0.797,-0.017 -1.61,0 -2.407,0 -0.987,0 -1.507,-0.537 -1.507,-1.541 0,-3.1 0,-6.217 0,-9.316 0,-1.16 -0.398,-1.697 -1.523,-2.009 -1.005,-0.277 -2.009,-0.277 -3.013,0 -1.143,0.312 -1.559,0.866 -1.559,2.044 0,3.394 -0.017,6.787 0.017,10.181 0,0.52 -0.138,0.676 -0.657,0.659 -1.057,-0.035 -2.113,-0.035 -3.17,0 -0.501,0.017 -0.64,-0.139 -0.64,-0.624 0.018,-3.29 0.018,-6.58 0.018,-9.853 0,-1.714 -0.468,-2.251 -2.165,-2.511 -0.918,-0.138 -1.818,-0.103 -2.684,0.225 -0.883,0.33 -1.247,0.849 -1.247,1.784 0,3.446 -0.017,6.892 0.017,10.338 0,0.519 -0.138,0.675 -0.658,0.658 -1.09,-0.035 -2.181,-0.017 -3.272,0 -0.399,0 -0.572,-0.104 -0.572,-0.537 0.018,-3.55 -0.017,-7.117 0.018,-10.667 0.034,-3.117 2.268,-5.61 5.506,-6.147 2.286,-0.381 4.519,-0.26 6.58,0.97 0.208,0.104 0.433,0.277 0.658,0.415z"/>
  <path d="M123.799 9.395c0.814,-0.987 1.852,-1.368 3.1,-1.334 0.415,0.018 0.553,0.139 0.553,0.554 -0.017,1.576 0,3.152 0,4.711 0,3.653 0,7.324 0,10.978 0,0.71 0,0.71 -0.71,0.71 -1.177,0.017 -2.147,-0.416 -2.943,-1.351 -2.008,1.801 -4.364,2.199 -6.909,1.749 -2.182,-0.381 -3.931,-1.541 -5.317,-3.255 -2.891,-3.619 -2.579,-8.676 0.641,-12 2.996,-3.1 8.295,-3.689 11.585,-0.762zm-0.572 7.169c0,-2.563 -2.008,-4.606 -4.554,-4.624 -2.545,-0.017 -4.588,2.026 -4.588,4.589 0,2.563 2.043,4.606 4.57,4.589 2.546,0 4.572,-2.026 4.572,-4.554z"/>
  <path d="M135.556 8.062c1.264,0 2.442,0.017 3.636,-0.018 0.52,-0.017 0.693,0.156 0.658,0.676 -0.035,0.779 0,1.575 -0.017,2.355 -0.018,0.865 -0.537,1.402 -1.402,1.42 -0.936,0.017 -1.888,0 -2.893,0 0,0.259 0,0.467 0,0.675 0,2.026 0,4.034 0,6.06 0,1.126 0.503,1.68 1.593,1.819 0.762,0.104 1.49,0.069 2.182,-0.295 0.33,-0.173 0.502,-0.017 0.502,0.347 0,1.281 0.018,2.58 -0.017,3.861 0,0.156 -0.19,0.416 -0.346,0.433 -2.424,0.45 -5.368,0.104 -7.238,-2.338 -0.831,-1.091 -1.177,-2.355 -1.177,-3.705 -0.018,-5.143 0,-10.286 -0.018,-15.429 0,-0.45 0.156,-0.572 0.589,-0.589 2.337,0 3.896,1.524 3.913,3.879 0.035,0.26 0.035,0.519 0.035,0.849z"/>
 </g>
</svg>
